<svg width="160" height="40" viewBox="0 0 160 40" fill="none" xmlns="http://www.w3.org/2000/svg">
<path fill-rule="evenodd" clip-rule="evenodd" d="M129.611 20.1305C130.374 19.9175 130.738 20.4073 131.218 20.7432C135.953 24.0519 134.319 24.4058 140.296 18.3757L147.285 11.3707C147.757 10.9 149.026 9.31545 149.935 9.29928C150.703 9.28568 151.025 9.91269 150.75 10.6139L137.101 27.3131C136.709 27.7774 136.401 28.1266 136.044 28.5911C134.369 30.7651 133.68 28.3086 131.831 24.9525C131.08 23.5896 129.385 21.0749 129.611 20.1305L129.611 20.1305ZM159.855 20.5424C160.497 17.3099 158.897 14.7828 157.234 13.2389C155.403 11.5384 156.463 11.8556 156.003 9.33209C155.287 5.40466 152.137 2.67563 147.245 3.22624C144.435 3.54267 144.719 0.613805 140.411 0.0579047C138.827 -0.146622 137.304 0.209615 136.126 0.828059C134.731 1.55982 134.196 2.58288 133.197 3.03165C131.76 3.67731 128.276 2.07715 125.352 4.98993C121.841 8.48753 123.357 10.5476 122.834 12.5708C122.588 13.5264 121.085 14.4883 120.468 15.3521C117.728 19.1852 118.903 23.2677 121.979 26.0941C123.948 27.9039 121.616 29.9007 124.705 33.4731C127.486 36.6902 130.101 35.8333 132.192 35.845C133.546 35.8526 134.462 37.1897 135.325 37.7928C137.727 39.4706 140.744 39.5076 143.2 38.083C144.397 37.3885 145.187 36.0895 146.032 35.7903C147.09 35.4154 148.776 36.2367 150.485 35.981C154.332 35.4056 157.342 31.8513 156.835 27.4558C156.455 24.1647 158.959 25.0482 159.855 20.5425V20.5424Z" fill="white"/>
<path fill-rule="evenodd" clip-rule="evenodd" d="M129.611 20.1303C129.384 21.0747 131.08 23.5893 131.831 24.9523C133.68 28.3084 134.369 30.7649 136.043 28.5909C136.401 28.1264 136.709 27.7772 137.1 27.3129L150.75 10.6137C151.025 9.91241 150.703 9.28539 149.935 9.29905C149.025 9.31522 147.757 10.8998 147.285 11.3705L140.296 18.3755C134.318 24.4055 135.953 24.0517 131.218 20.743C130.737 20.407 130.373 19.9172 129.611 20.1303L129.611 20.1303Z" fill="black"/>
<path fill-rule="evenodd" clip-rule="evenodd" d="M58.2825 38.9143C60.2536 39.7269 65.1893 38.052 66.8247 37.281C72.9523 34.3925 69.0026 34.2161 73.8528 35.4755C84.5859 38.2623 97.8692 33.8331 101.815 23.6066C104.247 17.3003 102.072 11.6983 98.8729 7.79927C92.8475 0.454902 79.0709 -2.82384 68.2585 2.94911C60.8763 6.89067 56.0728 14.602 58.9883 23.1023C59.7552 25.3382 61.5475 28.2439 63.0138 29.345C63.0806 30.8545 61.4986 33.5829 60.8533 34.5873C59.4132 36.8287 57.964 37.8469 58.2825 38.9143V38.9143Z" fill="white"/>
<path fill-rule="evenodd" clip-rule="evenodd" d="M20.8823 39.0979C21.5608 38.7876 33.7041 27.7029 35.3274 26.3344C38.1576 23.9484 40.5941 20.3382 41.5747 16.4149C44.6655 4.04883 32.0692 -4.62581 23.3764 2.71766C21.9228 3.94559 21.3958 5.10223 20.8822 5.48705C19.8687 4.40515 19.9513 3.86726 18.3648 2.58395C7.38518 -6.29692 -7.28477 9.43914 4.14855 23.6409C5.41308 25.2116 12.9475 32.0251 15.2222 34.0354L19.4809 37.8693C20.0415 38.4122 20.3311 38.7383 20.8822 39.0979H20.8823Z" fill="white"/>
</svg>
