<svg width="22" height="19" viewBox="0 0 22 19" fill="none" xmlns="http://www.w3.org/2000/svg">
<path d="M22 0.999802C21.0424 1.67528 19.9821 2.19191 18.86 2.5298C18.2577 1.83731 17.4573 1.34649 16.567 1.12373C15.6767 0.900962 14.7395 0.956997 13.8821 1.28426C13.0247 1.61151 12.2884 2.1942 11.773 2.95352C11.2575 3.71283 10.9877 4.61214 11 5.5298V6.5298C9.24263 6.57537 7.50127 6.18562 5.93101 5.39525C4.36074 4.60488 3.01032 3.43844 2 1.9998C2 1.9998 -2 10.9998 7 14.9998C4.94053 16.3978 2.48716 17.0987 0 16.9998C9 21.9998 20 16.9998 20 5.4998C19.9991 5.22126 19.9723 4.9434 19.92 4.6698C20.9406 3.6633 21.6608 2.39251 22 0.999802Z" fill="white"/>
</svg>
