<svg width="112" height="107" viewBox="0 0 112 107" fill="none" xmlns="http://www.w3.org/2000/svg">
<path fill-rule="evenodd" clip-rule="evenodd" d="M29.3864 54.5756C31.454 53.998 32.4404 55.3258 33.7439 56.2366C46.5803 65.2066 42.1493 66.1661 58.3544 49.8181L77.303 30.827C78.5814 29.5509 82.0206 25.255 84.4865 25.2111C86.5688 25.1742 87.442 26.8741 86.6955 28.7753L49.6912 74.0482C48.6301 75.3069 47.7952 76.2535 46.8254 77.5128C42.2867 83.4068 40.4183 76.747 35.4057 67.6484C33.37 63.9533 28.7721 57.1359 29.3865 54.5755L29.3864 54.5756ZM111.379 55.6921C113.122 46.9285 108.783 40.0773 104.275 35.8917C99.3106 31.2815 102.184 32.1414 100.937 25.3001C98.996 14.6525 90.4552 7.25384 77.1943 8.74659C69.5742 9.60447 70.345 1.66408 58.6668 0.156984C54.3703 -0.397505 50.2427 0.568283 47.0478 2.24494C43.2677 4.22879 41.8156 7.00239 39.1084 8.21905C35.2132 9.9695 25.768 5.63132 17.8408 13.5281C8.32208 23.0104 12.4301 28.5954 11.0139 34.0804C10.345 36.6713 6.27126 39.2789 4.59738 41.6207C-2.83062 52.0126 0.355667 63.0807 8.69463 70.7432C14.0346 75.6497 7.71068 81.0631 16.0847 90.7484C23.6257 99.4702 30.715 97.147 36.3845 97.1787C40.0537 97.1993 42.5368 100.824 44.8774 102.459C51.3892 107.008 59.5685 107.108 66.2266 103.246C69.4729 101.363 71.6134 97.8417 73.9045 97.0304C76.7743 96.0141 81.345 98.2406 85.9777 97.5476C96.4071 95.9874 104.568 86.3516 103.192 74.4349C102.162 65.5125 108.951 67.9077 111.379 55.6923V55.6921Z" />
<path fill-rule="evenodd" clip-rule="evenodd" d="M29.3855 54.5761C28.7712 57.1365 33.3689 63.9539 35.4046 67.649C40.4172 76.7477 42.2856 83.4074 46.8243 77.5135C47.7942 76.2541 48.629 75.3076 49.6901 74.0488L86.6945 28.7759C87.4411 26.8747 86.5677 25.1748 84.4854 25.2118C82.0195 25.2556 78.5804 29.5516 77.3019 30.8277L58.3533 49.8188C42.1482 66.1667 46.5794 65.2074 33.7428 56.2373C32.4393 55.3263 31.4529 53.9986 29.3853 54.5762L29.3855 54.5761Z" fill="white"/>
</svg>
