<svg width="160" height="58" viewBox="0 0 160 58" fill="none" xmlns="http://www.w3.org/2000/svg">
<path d="M83 57.6406V53.9516L94.7844 38.427C95.365 37.6755 95.9116 37.0095 96.4239 36.4288C96.9363 35.8481 97.2608 35.4895 97.3974 35.3528L90.4805 35.4553C89.6949 35.4553 89.0459 35.7627 88.5335 36.3776C88.0553 36.9582 87.6625 37.7268 87.3551 38.6832C87.0477 39.6396 86.8086 40.7156 86.6378 41.9111H83.4611L84.1784 32.0225H104.929V35.2504L93.5035 50.775C93.0252 51.424 92.547 52.0046 92.0688 52.517C91.5906 53.0294 91.1124 53.4905 90.6342 53.9004L97.8585 54.1053C98.9516 54.1395 99.8055 53.8662 100.42 53.2856C101.069 52.7049 101.565 51.9193 101.906 50.9287C102.248 49.904 102.504 48.7938 102.675 47.5983H105.851L105.083 57.6406H83Z" fill="white"/>
<path d="M109.665 57.6406V53.9516L121.45 38.427C122.03 37.6755 122.577 37.0095 123.089 36.4288C123.602 35.8481 123.926 35.4895 124.063 35.3528L117.146 35.4553C116.36 35.4553 115.711 35.7627 115.199 36.3776C114.721 36.9582 114.328 37.7268 114.02 38.6832C113.713 39.6396 113.474 40.7156 113.303 41.9111H110.126L110.844 32.0225H131.594V35.2504L120.169 50.775C119.691 51.424 119.212 52.0046 118.734 52.517C118.256 53.0294 117.778 53.4905 117.3 53.9004L124.524 54.1053C125.617 54.1395 126.471 53.8662 127.086 53.2856C127.735 52.7049 128.23 51.9193 128.572 50.9287C128.913 49.904 129.169 48.7938 129.34 47.5983H132.517L131.748 57.6406H109.665Z" fill="white"/>
<path d="M136.331 57.6406V53.9516L148.115 38.427C148.696 37.6755 149.243 37.0095 149.755 36.4288C150.267 35.8481 150.592 35.4895 150.728 35.3528L143.812 35.4553C143.026 35.4553 142.377 35.7627 141.865 36.3776C141.386 36.9582 140.994 37.7268 140.686 38.6832C140.379 39.6396 140.14 40.7156 139.969 41.9111H136.792L137.509 32.0225H158.26V35.2504L146.835 50.775C146.356 51.424 145.878 52.0046 145.4 52.517C144.922 53.0294 144.443 53.4905 143.965 53.9004L151.19 54.1053C152.283 54.1395 153.137 53.8662 153.751 53.2856C154.4 52.7049 154.896 51.9193 155.237 50.9287C155.579 49.904 155.835 48.7938 156.006 47.5983H159.182L158.414 57.6406H136.331Z" fill="white"/>
<path d="M83 25.6182V21.9292L94.7844 6.40454C95.365 5.65308 95.9116 4.98701 96.4239 4.40633C96.9363 3.82565 97.2608 3.46699 97.3974 3.33036L90.4805 3.43284C89.6949 3.43284 89.0459 3.74025 88.5335 4.35509C88.0553 4.93577 87.6625 5.70432 87.3551 6.66073C87.0477 7.61714 86.8086 8.6931 86.6378 9.88862H83.4611L84.1784 0H104.929V3.22789L93.5035 18.7525C93.0252 19.4015 92.547 19.9822 92.0688 20.4945C91.5906 21.0069 91.1124 21.468 90.6342 21.8779L97.8585 22.0829C98.9516 22.117 99.8055 21.8438 100.42 21.2631C101.069 20.6824 101.565 19.8968 101.906 18.9062C102.248 17.8815 102.504 16.7714 102.675 15.5759H105.851L105.083 25.6182H83Z" fill="white"/>
<path d="M109.665 25.6182V21.9292L121.45 6.40454C122.03 5.65308 122.577 4.98701 123.089 4.40633C123.602 3.82565 123.926 3.46699 124.063 3.33036L117.146 3.43284C116.36 3.43284 115.711 3.74025 115.199 4.35509C114.721 4.93577 114.328 5.70432 114.02 6.66073C113.713 7.61714 113.474 8.6931 113.303 9.88862H110.126L110.844 0H131.594V3.22789L120.169 18.7525C119.691 19.4015 119.212 19.9822 118.734 20.4945C118.256 21.0069 117.778 21.468 117.3 21.8779L124.524 22.0829C125.617 22.117 126.471 21.8438 127.086 21.2631C127.735 20.6824 128.23 19.8968 128.572 18.9062C128.913 17.8815 129.169 16.7714 129.34 15.5759H132.517L131.748 25.6182H109.665Z" fill="white"/>
<path d="M136.331 25.6182V21.9292L148.115 6.40454C148.696 5.65308 149.243 4.98701 149.755 4.40633C150.267 3.82565 150.592 3.46699 150.728 3.33036L143.812 3.43284C143.026 3.43284 142.377 3.74025 141.865 4.35509C141.386 4.93577 140.994 5.70432 140.686 6.66073C140.379 7.61714 140.14 8.6931 139.969 9.88862H136.792L137.509 0H158.26V3.22789L146.835 18.7525C146.356 19.4015 145.878 19.9822 145.4 20.4945C144.922 21.0069 144.443 21.468 143.965 21.8779L151.19 22.0829C152.283 22.117 153.137 21.8438 153.751 21.2631C154.4 20.6824 154.896 19.8968 155.237 18.9062C155.579 17.8815 155.835 16.7714 156.006 15.5759H159.182L158.414 25.6182H136.331Z" fill="white"/>
<path d="M0 57.6406V53.9516L11.7844 38.427C12.365 37.6755 12.9116 37.0095 13.4239 36.4288C13.9363 35.8481 14.2608 35.4895 14.3974 35.3528L7.48051 35.4553C6.69489 35.4553 6.04589 35.7627 5.53353 36.3776C5.05532 36.9582 4.66251 37.7268 4.35509 38.6832C4.04767 39.6396 3.80857 40.7156 3.63778 41.9111H0.461127L1.17844 32.0225H21.9292V35.2504L10.5035 50.775C10.0252 51.424 9.54704 52.0046 9.06884 52.517C8.59063 53.0294 8.11242 53.4905 7.63422 53.9004L14.8585 54.1053C15.9516 54.1395 16.8055 53.8662 17.4204 53.2856C18.0694 52.7049 18.5646 51.9193 18.9062 50.9287C19.2478 49.904 19.504 48.7938 19.6748 47.5983H22.8514L22.0829 57.6406H0Z" fill="white"/>
<path d="M26.6653 57.6406V53.9516L38.4496 38.427C39.0303 37.6755 39.5768 37.0095 40.0892 36.4288C40.6016 35.8481 40.9261 35.4895 41.0627 35.3528L34.1458 35.4553C33.3602 35.4553 32.7112 35.7627 32.1988 36.3776C31.7206 36.9582 31.3278 37.7268 31.0204 38.6832C30.713 39.6396 30.4739 40.7156 30.3031 41.9111H27.1264L27.8437 32.0225H48.5944V35.2504L37.1687 50.775C36.6905 51.424 36.2123 52.0046 35.7341 52.517C35.2559 53.0294 34.7777 53.4905 34.2995 53.9004L41.5238 54.1053C42.6169 54.1395 43.4708 53.8662 44.0856 53.2856C44.7346 52.7049 45.2299 51.9193 45.5715 50.9287C45.9131 49.904 46.1693 48.7938 46.34 47.5983H49.5167L48.7482 57.6406H26.6653Z" fill="white"/>
<path d="M53.3311 57.6406V53.9516L65.1154 38.427C65.6961 37.6755 66.2426 37.0095 66.755 36.4288C67.2673 35.8481 67.5918 35.4895 67.7285 35.3528L60.8116 35.4553C60.0259 35.4553 59.3769 35.7627 58.8646 36.3776C58.3864 36.9582 57.9936 37.7268 57.6861 38.6832C57.3787 39.6396 57.1396 40.7156 56.9688 41.9111H53.7922L54.5095 32.0225H75.2602V35.2504L63.8345 50.775C63.3563 51.424 62.8781 52.0046 62.3999 52.517C61.9217 53.0294 61.4435 53.4905 60.9653 53.9004L68.1896 54.1053C69.2826 54.1395 70.1366 53.8662 70.7514 53.2856C71.4004 52.7049 71.8957 51.9193 72.2373 50.9287C72.5789 49.904 72.835 48.7938 73.0058 47.5983H76.1825L75.4139 57.6406H53.3311Z" fill="white"/>
<path d="M0 25.6182V21.9292L11.7844 6.40454C12.365 5.65308 12.9116 4.98701 13.4239 4.40633C13.9363 3.82565 14.2608 3.46699 14.3974 3.33036L7.48051 3.43284C6.69489 3.43284 6.04589 3.74025 5.53353 4.35509C5.05532 4.93577 4.66251 5.70432 4.35509 6.66073C4.04767 7.61714 3.80857 8.6931 3.63778 9.88862H0.461127L1.17844 0H21.9292V3.22789L10.5035 18.7525C10.0252 19.4015 9.54704 19.9822 9.06884 20.4945C8.59063 21.0069 8.11242 21.468 7.63422 21.8779L14.8585 22.0829C15.9516 22.117 16.8055 21.8438 17.4204 21.2631C18.0694 20.6824 18.5646 19.8968 18.9062 18.9062C19.2478 17.8815 19.504 16.7714 19.6748 15.5759H22.8514L22.0829 25.6182H0Z" fill="white"/>
<path d="M26.6653 25.6182V21.9292L38.4496 6.40454C39.0303 5.65308 39.5768 4.98701 40.0892 4.40633C40.6016 3.82565 40.9261 3.46699 41.0627 3.33036L34.1458 3.43284C33.3602 3.43284 32.7112 3.74025 32.1988 4.35509C31.7206 4.93577 31.3278 5.70432 31.0204 6.66073C30.713 7.61714 30.4739 8.6931 30.3031 9.88862H27.1264L27.8437 0H48.5944V3.22789L37.1687 18.7525C36.6905 19.4015 36.2123 19.9822 35.7341 20.4945C35.2559 21.0069 34.7777 21.468 34.2995 21.8779L41.5238 22.0829C42.6169 22.117 43.4708 21.8438 44.0856 21.2631C44.7346 20.6824 45.2299 19.8968 45.5715 18.9062C45.9131 17.8815 46.1693 16.7714 46.34 15.5759H49.5167L48.7482 25.6182H26.6653Z" fill="white"/>
<path d="M53.3311 25.6182V21.9292L65.1154 6.40454C65.6961 5.65308 66.2426 4.98701 66.755 4.40633C67.2673 3.82565 67.5918 3.46699 67.7285 3.33036L60.8116 3.43284C60.0259 3.43284 59.3769 3.74025 58.8646 4.35509C58.3864 4.93577 57.9936 5.70432 57.6861 6.66073C57.3787 7.61714 57.1396 8.6931 56.9688 9.88862H53.7922L54.5095 0H75.2602V3.22789L63.8345 18.7525C63.3563 19.4015 62.8781 19.9822 62.3999 20.4945C61.9217 21.0069 61.4435 21.468 60.9653 21.8779L68.1896 22.0829C69.2826 22.117 70.1366 21.8438 70.7514 21.2631C71.4004 20.6824 71.8957 19.8968 72.2373 18.9062C72.5789 17.8815 72.835 16.7714 73.0058 15.5759H76.1825L75.4139 25.6182H53.3311Z" fill="white"/>
</svg>
